<svg width="18" height="19" viewBox="0 0 18 19" fill="none" xmlns="http://www.w3.org/2000/svg">
<path d="M8.99999 2.62106C11.4033 2.62106 11.6876 2.63035 12.6369 2.67358C13.5143 2.71359 13.9909 2.86007 14.3081 2.98332C14.6995 3.12743 15.0535 3.35757 15.3441 3.65675C15.6433 3.94735 15.8735 4.3014 16.0176 4.69279C16.1408 5.01003 16.2873 5.48662 16.3273 6.36404C16.3705 7.31327 16.3798 7.59764 16.3798 10.0009C16.3798 12.4042 16.3705 12.6885 16.3273 13.6378C16.2873 14.5152 16.1408 14.9918 16.0176 15.309C15.8677 15.6971 15.6383 16.0495 15.3441 16.3436C15.05 16.6378 14.6976 16.8672 14.3095 17.0171C13.9923 17.1403 13.5157 17.2868 12.6383 17.3268C11.6894 17.37 11.4047 17.3793 9.00142 17.3793C6.59816 17.3793 6.31343 17.37 5.36456 17.3268C4.48714 17.2868 4.01056 17.1403 3.69331 17.0171C3.30192 16.8729 2.94787 16.6428 2.65727 16.3436C2.35809 16.053 2.12796 15.699 1.98384 15.3076C1.86059 14.9903 1.71411 14.5138 1.6741 13.6363C1.63087 12.6871 1.62159 12.4027 1.62159 9.99948C1.62159 7.59621 1.63087 7.31184 1.6741 6.36261C1.71411 5.48519 1.86059 5.00861 1.98384 4.69136C2.12796 4.29997 2.35809 3.94592 2.65727 3.65532C2.94787 3.35614 3.30192 3.126 3.69331 2.98189C4.01056 2.85864 4.48714 2.71216 5.36456 2.67215C6.31379 2.62892 6.59816 2.61963 9.00142 2.61963L8.99999 2.62106ZM9.00142 0.998047C6.55708 0.998047 6.25055 1.00841 5.2906 1.05235C4.33066 1.09629 3.67688 1.24956 3.10527 1.47177C2.50458 1.69789 1.96036 2.05217 1.51048 2.50996C1.05269 2.95984 0.698416 3.50406 0.472292 4.10475C0.250079 4.67636 0.0978881 5.33157 0.0543029 6.28937C0.0107177 7.24717 0 7.55513 0 9.99948C0 12.4438 0.0103604 12.7503 0.0543029 13.7103C0.0982454 14.6702 0.250079 15.3226 0.472292 15.8942C0.698508 16.4946 1.05278 17.0386 1.51048 17.4883C1.96021 17.9463 2.50446 18.3008 3.10527 18.5268C3.67688 18.7494 4.33209 18.9016 5.28989 18.9452C6.24769 18.9888 6.55636 18.9995 9.00071 18.9995C11.4451 18.9995 11.7516 18.9891 12.7115 18.9452C13.6715 18.9012 14.3231 18.7494 14.8947 18.5268C15.4928 18.2957 16.0359 17.9422 16.4893 17.4888C16.9427 17.0354 17.2963 16.4923 17.5273 15.8942C17.7499 15.3226 17.9021 14.6674 17.9457 13.7096C17.9893 12.7518 18 12.4431 18 9.99876C18 7.55441 17.9896 7.24789 17.9457 6.28794C17.9017 5.32799 17.7499 4.67636 17.5273 4.10475C17.3014 3.50426 16.9472 2.96027 16.4895 2.51067C16.0397 2.05263 15.4955 1.6981 14.8947 1.47177C14.3231 1.24956 13.6679 1.09736 12.7101 1.05378C11.7523 1.01019 11.4443 0.999476 8.99999 0.999476L9.00142 0.998047Z" fill="#4C576B"/>
<path d="M9.00001 5.37842C8.08597 5.37842 7.19246 5.64946 6.43246 6.15728C5.67246 6.66509 5.08012 7.38686 4.73033 8.23133C4.38054 9.07579 4.28902 10.005 4.46734 10.9015C4.64566 11.798 5.08582 12.6214 5.73214 13.2678C6.37846 13.9141 7.20193 14.3542 8.09841 14.5326C8.99488 14.7109 9.92411 14.6194 10.7686 14.2696C11.613 13.9198 12.3348 13.3274 12.8426 12.5674C13.3504 11.8074 13.6215 10.9139 13.6215 9.99989C13.6215 9.39297 13.502 8.79199 13.2698 8.23127C13.0375 7.67055 12.6971 7.16106 12.268 6.73191C11.8388 6.30276 11.3293 5.96234 10.7686 5.73011C10.2079 5.49788 9.60692 5.37837 9.00001 5.37842ZM9.00001 13.0008C8.40648 13.0008 7.82627 12.8248 7.33277 12.4951C6.83927 12.1653 6.45463 11.6967 6.22749 11.1483C6.00036 10.5999 5.94093 9.99656 6.05672 9.41443C6.17251 8.8323 6.45832 8.29758 6.87802 7.87789C7.29771 7.4582 7.83243 7.17239 8.41455 7.05659C8.99668 6.9408 9.60007 7.00023 10.1484 7.22737C10.6968 7.4545 11.1655 7.83914 11.4952 8.33265C11.825 8.82615 12.001 9.40635 12.001 9.99989C12.001 10.7958 11.6848 11.5591 11.122 12.1219C10.5592 12.6847 9.79591 13.0008 9.00001 13.0008Z" fill="#4C576B"/>
<path d="M13.8045 6.27569C14.4009 6.27569 14.8845 5.79217 14.8845 5.19571C14.8845 4.59925 14.4009 4.11572 13.8045 4.11572C13.208 4.11572 12.7245 4.59925 12.7245 5.19571C12.7245 5.79217 13.208 6.27569 13.8045 6.27569Z" fill="#4C576B"/>
</svg>
