<svg width="26" height="17" viewBox="0 0 26 17" fill="none" xmlns="http://www.w3.org/2000/svg">
<path d="M24.895 1.63708C24.1897 0.444436 23.4244 0.225064 21.866 0.14164C20.3092 0.0412234 16.3946 -0.000488281 13.0033 -0.000488281C9.60537 -0.000488281 5.68913 0.0412235 4.134 0.140096C2.57887 0.225064 1.81187 0.442891 1.10012 1.63708C0.37375 2.82818 0 4.87978 0 8.4917C0 8.49479 0 8.49634 0 8.49634C0 8.49943 0 8.50097 0 8.50097V8.50406C0 12.1005 0.37375 14.1676 1.10012 15.3463C1.81187 16.539 2.57725 16.7553 4.13237 16.8557C5.68913 16.9422 9.60537 16.9932 13.0033 16.9932C16.3946 16.9932 20.3092 16.9422 21.8676 16.8572C23.426 16.7568 24.1914 16.5405 24.8966 15.3479C25.6295 14.1691 26 12.1021 26 8.50561C26 8.50561 26 8.50097 26 8.49788C26 8.49788 26 8.49479 26 8.49325C26 4.87978 25.6295 2.82818 24.895 1.63708ZM9.75 13.131V3.86171L17.875 8.49634L9.75 13.131Z" fill="#4C576B"/>
</svg>
