<svg width="21" height="17" viewBox="0 0 21 17" fill="none" xmlns="http://www.w3.org/2000/svg">
<path d="M21 2.0113C20.2191 2.35248 19.3869 2.57863 18.5194 2.68843C19.4119 2.15771 20.0931 1.32371 20.4133 0.318469C19.5812 0.812593 18.6624 1.16162 17.6833 1.35639C16.8932 0.518472 15.7671 -0.000488281 14.5386 -0.000488281C12.1551 -0.000488281 10.2362 1.92633 10.2362 4.28845C10.2362 4.62832 10.2651 4.95512 10.3359 5.26624C6.75675 5.09238 3.58969 3.38386 1.46212 0.78122C1.09069 1.42306 0.872813 2.15771 0.872813 2.94856C0.872813 4.43355 1.64062 5.7499 2.78513 6.512C2.09344 6.49893 1.41488 6.29893 0.84 5.98389C0.84 5.99696 0.84 6.01396 0.84 6.03095C0.84 8.11463 2.33231 9.84537 4.28925 10.2441C3.93881 10.3395 3.55687 10.3852 3.1605 10.3852C2.88488 10.3852 2.60662 10.3696 2.34544 10.312C2.90325 12.0101 4.48613 13.2585 6.36825 13.299C4.9035 14.4402 3.04369 15.1278 1.03031 15.1278C0.67725 15.1278 0.338625 15.1121 0 15.069C1.90706 16.2938 4.16719 16.9932 6.6045 16.9932C14.5267 16.9932 18.858 10.4571 18.858 4.79172C18.858 4.60218 18.8514 4.41917 18.8423 4.23747C19.6967 3.63354 20.4146 2.87928 21 2.0113Z" fill="#4C576B"/>
</svg>
